<mxfile host="app.diagrams.net" modified="2023-09-07T19:20:56.093Z" agent="Mozilla/5.0 (Windows NT 10.0; Win64; x64) AppleWebKit/537.36 (KHTML, like Gecko) Chrome/116.0.0.0 Safari/537.36" version="21.7.2" etag="b21VO2WMd2k4TqGTQGps" type="github">
  <diagram name="PÃ¡gina-1" id="wB8GNBI1v9tfEhR8KxaO">
    <mxGraphModel>
      <root>
        <mxCell id="0" />
        <mxCell id="1" parent="0" />
      </root>
    </mxGraphModel>
  </diagram>
</mxfile>
